<?xml version="1.0" encoding="UTF-8"?>
<!DOCTYPE svg PUBLIC "-//W3C//DTD SVG 1.1//EN" "http://www.w3.org/Graphics/SVG/1.1/DTD/svg11.dtd">
<!-- Creator: CorelDRAW X7 -->
<svg xmlns="http://www.w3.org/2000/svg" xml:space="preserve" width="95.6058mm" height="31.6916mm" version="1.1" style="shape-rendering:geometricPrecision; text-rendering:geometricPrecision; image-rendering:optimizeQuality; fill-rule:evenodd; clip-rule:evenodd"
viewBox="0 0 603 200"
 xmlns:xlink="http://www.w3.org/1999/xlink">
 <defs>
  <style type="text/css">
   <![CDATA[
    .fil2 {fill:#FEFEFE}
    .fil1 {fill:#2B2A29}
    .fil0 {fill:#E31E24}
   ]]>
  </style>
 </defs>
 <g id="Layer_x0020_1">
  <metadata id="CorelCorpID_0Corel-Layer"/>
  <g id="_984060528">
   <path class="fil0" d="M310 189l-4 10 -6 0 5 -10 -2 0 0 -5 4 0 7 -16 -2 -3 5 -2 9 21 4 0 0 5 -2 0 4 10 -5 0 -5 -10 -12 0zm6 -14l-4 9 8 0 -4 -9z"/>
   <path class="fil0" d="M415 189l-5 10 -5 0 4 -10 -2 0 0 -5 4 0 7 -15 -1 -3 4 -2 9 20 4 0 0 5 -2 0 4 10 -5 0 -4 -10 -12 0zm6 -14l-4 9 8 0 -4 -9z"/>
   <path class="fil0" d="M492 189l-4 10 -5 0 4 -10 -2 0 0 -5 4 0 7 -15 -1 -3 4 -2 9 20 4 0 0 5 -2 0 4 10 -5 0 -5 -10 -12 0zm6 -14l-4 9 8 0 -4 -9z"/>
   <polygon class="fil0" points="376,194 388,194 388,199 370,199 370,185 366,185 366,180 370,180 370,165 388,165 388,170 376,170 376,180 388,180 388,185 376,185 "/>
   <polygon class="fil0" points="291,170 291,199 286,199 286,170 278,170 278,165 299,165 299,170 "/>
   <polygon class="fil0" points="344,178 356,165 363,165 348,181 363,199 357,199 344,185 344,199 339,199 339,165 344,165 "/>
   <polygon class="fil0" points="460,176 449,200 435,165 440,165 450,187 460,164 470,187 479,165 485,165 470,200 "/>
   <polygon class="fil0" points="524,189 519,189 519,184 524,184 513,165 519,165 527,180 535,165 541,165 530,184 535,184 535,189 529,189 529,199 524,199 "/>
  </g>
  <path class="fil1" d="M242 115c1,0 5,0 6,0 13,0 25,4 24,20 0,6 -6,10 -14,11 -5,1 -12,1 -17,0 -7,-1 -13,-5 -13,-11l0 -6c-2,0 -4,1 -6,2l-7 -11c4,-2 9,-3 13,-4l0 -6c-4,-1 -9,-3 -13,-5l7 -11c2,1 4,2 6,2l0 -5c0,-6 6,-9 13,-11 5,-1 12,-1 17,0 8,1 14,5 14,11 1,16 -11,20 -24,20 -1,1 -5,1 -6,1l0 3zm173 -61c1,-2 1,-4 1,-5 23,6 58,5 79,0 0,1 1,3 1,5 -22,6 -59,6 -81,0zm4 -18c1,-9 3,-19 5,-28l-14 0 -8 43c-2,8 1,12 7,15 6,2 12,4 17,4 17,3 42,3 59,0 5,0 10,-2 15,-4 8,-3 11,-7 9,-15l-8 -43 -14 0c2,9 4,19 6,28 -9,2 -20,3 -31,4l0 -32 -14 0 0 32c-11,-1 -21,-2 -29,-4zm121 -28l-5 28c14,4 37,4 51,0l-5 -28 14 0c2,14 5,29 8,44 1,7 0,11 -11,16 -9,3 -22,4 -32,4 -10,0 -23,-1 -33,-5 -9,-4 -11,-9 -9,-15l8 -44 14 0zm-8 41l-1 6c9,3 20,4 29,4 10,0 21,-1 29,-4l-1 -6c-15,5 -40,5 -56,0zm-237 -38c9,4 10,9 9,16 -1,3 -1,6 -2,9l-14 0c1,-4 2,-8 3,-12 -14,-6 -41,-6 -58,0 1,3 1,6 2,9 5,16 10,25 28,26 11,0 21,-3 26,-6l7 12c-7,4 -20,8 -33,7 -32,0 -39,-18 -44,-45 -2,-9 2,-13 10,-16 18,-7 48,-7 66,0zm92 28c11,-4 12,-9 11,-16 -1,-5 -2,-10 -3,-15l-14 0 3 18c-14,5 -42,5 -58,0l4 -18 -14 0 -3 15c-2,7 0,11 9,15 12,5 30,7 46,5l3 13c-9,4 -24,3 -31,0 0,-2 1,-5 1,-8l-14 0c0,2 -1,4 -1,6 -1,7 0,11 9,15 12,5 29,5 42,0 8,-4 9,-9 8,-15 -1,-5 -2,-9 -3,-13 2,-1 4,-2 5,-2zm-66 9c-2,9 -3,15 -5,24 -8,-4 -12,-9 -11,-16l2 -8 14 0zm268 50c-16,-5 -43,-5 -58,0l2 8 -14 0 -1 -5c-2,-7 0,-11 9,-15 18,-7 48,-7 66,-1 8,4 11,8 10,17 -2,8 -4,14 -6,21 4,6 6,15 6,22l-14 0c0,-1 0,-6 -1,-8 -5,4 -10,7 -16,8 -6,2 -12,2 -17,2 -33,-2 -46,-32 -9,-40 13,-3 28,-1 40,6 1,-4 2,-10 3,-15zm-21 34c5,-1 9,-4 11,-7 -4,-3 -10,-4 -16,-5 -5,-1 -10,0 -14,1 -5,1 -9,3 -11,5 1,2 3,3 6,5 7,3 17,3 24,1zm-62 13l-11 -28c-4,-11 -17,-11 -21,0l-12 28 -14 0 13 -33c3,-8 8,-13 14,-16l-18 0 0 -14 54 0 0 14 -18 0c6,3 12,8 15,16l13 33 -15 0zm-65 -59c9,4 11,9 10,15 -1,3 -2,7 -2,10l-14 0c0,-5 1,-9 2,-13 -14,-5 -41,-5 -57,0 0,3 1,6 2,9 4,17 9,26 28,26 10,0 21,-3 25,-5l7 12c-6,3 -19,7 -33,7 -32,-1 -38,-18 -44,-46 -1,-8 2,-12 10,-16 18,-7 49,-7 66,1zm-149 43c16,6 44,6 58,0l-1 -8 14 0 1 5c1,7 0,12 -10,16 -17,7 -47,7 -65,0 -9,-3 -12,-7 -10,-17 2,-8 3,-14 6,-21 -3,-4 -5,-9 -6,-13l15 0c4,-4 10,-7 16,-9 5,-1 11,-2 17,-2 33,2 45,32 9,40 -13,3 -29,2 -40,-6 -2,5 -3,10 -4,15zm22 -33c-5,1 -9,3 -12,6 5,3 11,5 16,5 5,1 10,1 15,0 5,-1 9,-3 10,-6 -1,-1 -3,-3 -5,-4 -7,-3 -17,-3 -24,-1zm-72 -2l0 5c4,0 17,1 16,-6 -5,-1 -11,-1 -16,1zm0 39l0 -6c4,0 17,0 16,6 -5,1 -11,1 -16,0z"/>
  <g id="_984072688">
   <path class="fil0" d="M99 0c55,0 99,44 99,99 0,55 -44,99 -99,99 -55,0 -99,-44 -99,-99 0,-55 44,-99 99,-99z"/>
   <path class="fil2" d="M110 122l0 -6c5,0 10,0 16,0 18,-1 33,-8 32,-30 0,-10 -11,-14 -20,-16 -8,-1 -21,-1 -29,0 -8,2 -19,6 -19,17l0 9c-15,-3 -20,-12 -24,-26 -3,-7 -5,-16 -6,-23 23,-8 59,-8 78,0 0,5 -1,9 -2,14l20 0c0,-3 1,-7 2,-10 1,-9 0,-16 -13,-21 -24,-11 -67,-11 -91,-1 -11,5 -16,10 -14,22 7,35 15,59 50,63l0 8c-27,3 -41,17 -46,43l19 0c5,-16 12,-23 27,-25l0 12c0,10 11,14 19,16 8,1 21,1 29,0 9,-1 20,-6 20,-16 1,-22 -14,-29 -33,-29 -5,-1 -10,-1 -15,-1zm29 -33c0,3 -2,6 -5,7 -6,4 -22,3 -24,3l0 -10c8,-2 20,-2 29,0zm-29 60l0 -10c2,0 17,-1 24,3 3,1 5,4 5,7 -9,2 -21,2 -29,0z"/>
  </g>
 </g>
</svg>
